<svg fill="#FFFFFF" xmlns:dc="http://purl.org/dc/elements/1.1/" xmlns:cc="http://creativecommons.org/ns#" xmlns:rdf="http://www.w3.org/1999/02/22-rdf-syntax-ns#" xmlns:svg="http://www.w3.org/2000/svg" xmlns="http://www.w3.org/2000/svg" xmlns:sodipodi="http://sodipodi.sourceforge.net/DTD/sodipodi-0.dtd" xmlns:inkscape="http://www.inkscape.org/namespaces/inkscape" version="1.1" x="0px" y="0px" viewBox="0 0 100 100"><g transform="translate(0,-952.36218)"><path style="color:#000000;enable-background:accumulate;" d="m 32,968.36218 c -8.86394,0 -16,7.1361 -16,16 l 0,36.00002 c 0,8.8639 7.13606,16 16,16 l 36,0 c 8.86394,0 16,-7.1361 16,-16 l 0,-36.00002 c 0,-8.8639 -7.13606,-16 -16,-16 l -36,0 z m 38,10 c 2.2091,0 4,1.7908 4,4 0,2.2091 -1.7909,4.00001 -4,4.00001 -2.2092,0 -4,-1.79091 -4,-4.00001 0,-2.2092 1.7908,-4 4,-4 z m -20,7 c 9.36519,0 17,7.63491 17,17.00002 0,9.3651 -7.63481,17 -17,17 -9.36519,0 -17,-7.6349 -17,-17 0,-9.36511 7.63481,-17.00002 17,-17.00002 z m 0,4.00001 c -7.20341,0 -13,5.7967 -13,13.00001 0,7.2033 5.79659,13 13,13 7.20341,0 13,-5.7967 13,-13 0,-7.20331 -5.79659,-13.00001 -13,-13.00001 z" fill="#FFFFFF" stroke="none" marker="none" visibility="visible" display="inline" overflow="visible"></path></g></svg>